<svg width="272" height="322" viewBox="0 0 272 322" fill="none" xmlns="http://www.w3.org/2000/svg">
<g clip-path="url(#clip0_576_4072)">
<path d="M193.435 270.216L196.125 322C196.125 322 82.3167 213.419 68.1381 181.65C53.9596 149.88 80.6486 71.2925 80.6486 71.2925L139.865 103.898L193.435 270.216Z" fill="#76C892"/>
<path d="M18.9306 49.5552L1.41594 51.2273C1.41594 51.2273 -7.75842 71.2922 20.5986 72.9643L18.9306 49.5552Z" fill="#76C892"/>
<path d="M18.9306 80.4888L1.41594 82.1609C1.41594 82.1609 -7.75842 102.226 20.5986 103.898L18.9306 80.4888Z" fill="#76C892"/>
<path d="M18.9306 113.93L1.41594 115.602C1.41594 115.602 -7.75842 135.667 20.5986 137.339L18.9306 113.93Z" fill="#76C892"/>
<path d="M23.935 147.372L6.42034 149.044C6.42034 149.044 -2.75402 169.109 25.603 170.781L23.935 147.372Z" fill="#76C892"/>
<path d="M10.4038 57.6162H11.7328V21.1219C11.7328 18.3482 12.2778 15.6015 13.3367 13.0389C14.3956 10.4763 15.9477 8.14782 17.9044 6.18647C19.861 4.22512 22.1839 2.6693 24.7403 1.60782C27.2968 0.546342 30.0368 2.12514e-06 32.8039 0H109.936C112.703 -5.6669e-06 115.443 0.546325 118 1.60779C120.556 2.66926 122.879 4.22509 124.836 6.18643C126.792 8.14778 128.345 10.4762 129.403 13.0389C130.462 15.6015 131.007 18.3481 131.007 21.1218V221.332C131.007 224.106 130.462 226.853 129.404 229.415C128.345 231.978 126.793 234.306 124.836 236.268C122.879 238.229 120.556 239.785 118 240.846C115.443 241.908 112.703 242.454 109.936 242.454H32.804C27.2156 242.454 21.8561 240.229 17.9044 236.268C13.9528 232.307 11.7328 226.934 11.7328 221.332V83.5934H10.4038V57.6162Z" fill="#3F3D56"/>
<path d="M31.9535 5.49513H42.0218C41.5588 6.63303 41.3821 7.8676 41.5072 9.0901C41.6323 10.3126 42.0554 11.4855 42.7392 12.5055C43.423 13.5255 44.3466 14.3612 45.4285 14.9391C46.5105 15.517 47.7176 15.8193 48.9436 15.8194H93.1317C94.3577 15.8193 95.5648 15.517 96.6467 14.9391C97.7287 14.3612 98.6523 13.5255 99.3361 12.5055C100.02 11.4855 100.443 10.3126 100.568 9.0901C100.693 7.8676 100.516 6.63302 100.053 5.49512H109.457C113.631 5.49511 117.633 7.15696 120.584 10.1151C123.535 13.0732 125.193 17.0853 125.193 21.2687V221.185C125.193 223.257 124.786 225.308 123.995 227.222C123.204 229.135 122.045 230.874 120.584 232.339C119.123 233.804 117.388 234.966 115.479 235.758C113.57 236.551 111.524 236.959 109.457 236.959H31.9535C29.8871 236.959 27.8408 236.551 25.9317 235.758C24.0226 234.966 22.2879 233.804 20.8267 232.339C19.3655 230.874 18.2064 229.135 17.4156 227.222C16.6248 225.308 16.2178 223.257 16.2178 221.185V21.2687C16.2178 19.1973 16.6248 17.1462 17.4156 15.2324C18.2064 13.3187 19.3655 11.5798 20.8267 10.1151C22.2879 8.65039 24.0226 7.48851 25.9317 6.69582C27.8408 5.90312 29.8871 5.49513 31.9535 5.49513Z" fill="white"/>
<path d="M87.3107 61.502H54.1006V69.5351H87.3107V61.502Z" fill="#F42534"/>
<path d="M88.8917 96.02H52.5195V104.053H88.8917V96.02Z" fill="#E5E5E5"/>
<path d="M111.295 113.276H30.1157V121.31H111.295V113.276Z" fill="#E5E5E5"/>
<path d="M111.295 130.533H30.1157V138.566H111.295V130.533Z" fill="#E5E5E5"/>
<path d="M272 297.187L178.647 190.428L175.311 121.873L140.282 63.3502L130.274 38.269C130.274 38.269 106.921 40.7772 126.103 88.4314L134.027 113.931C126.884 129.351 123.184 146.147 123.184 163.149V221.58C123.184 235.339 188.592 310.283 196.206 321.73L272 297.187Z" fill="#76C892"/>
<path opacity="0.2" d="M133.02 68.3092L139.983 64.8785L139.746 64.3941L133.312 67.5642L123.599 42.0376L123.096 42.2302L133.02 68.3092Z" fill="black"/>
<path opacity="0.2" d="M1.50927 50.9738L1.32324 51.48L11.6394 55.2893L11.8254 54.783L1.50927 50.9738Z" fill="black"/>
<path opacity="0.2" d="M1.50927 82.2594L1.32324 82.7656L11.6394 86.5749L11.8254 86.0687L1.50927 82.2594Z" fill="black"/>
<path opacity="0.2" d="M1.50927 115.703L1.32324 116.209L11.6394 120.019L11.8254 119.513L1.50927 115.703Z" fill="black"/>
<path opacity="0.2" d="M6.91395 149.156L6.68115 149.643L11.7037 152.059L11.9365 151.573L6.91395 149.156Z" fill="black"/>
<path d="M70.7467 207.892C83.5944 207.892 94.0095 197.452 94.0095 184.574C94.0095 171.695 83.5944 161.255 70.7467 161.255C57.899 161.255 47.4839 171.695 47.4839 184.574C47.4839 197.452 57.899 207.892 70.7467 207.892Z" fill="#F42534"/>
<path d="M68.5295 194.417L61.5674 185.443L65.6162 182.287L68.9127 186.536L80.0501 174.75L83.7744 178.287L68.5295 194.417Z" fill="white"/>
</g>
<defs>
<clipPath id="clip0_576_4072">
<rect width="272" height="322" fill="white"/>
</clipPath>
</defs>
</svg>
