<svg width="179" height="40" viewBox="0 0 179 40" fill="none" xmlns="http://www.w3.org/2000/svg">
<path fill-rule="evenodd" clip-rule="evenodd" d="M31.0578 17.9029C30.695 17.6383 30.0699 17.6145 29.6618 17.8498C29.2537 18.085 29.217 18.4903 29.5799 18.7549L31.664 20.2747L20.1685 27.7281L8.50939 20.1685C8.95717 19.8907 9.38857 19.6174 9.74674 19.3883C10.0249 19.2104 10.2599 19.0586 10.4255 18.9512C10.5083 18.8974 10.5738 18.8547 10.6188 18.8254L10.6703 18.7918L10.6838 18.783L10.6873 18.7807L10.6882 18.7801L10.6885 18.7799L10.6885 18.7798L9.9855 18.329L10.6886 18.7798C11.0726 18.528 11.0691 18.1221 10.6809 17.8731C10.2926 17.6241 9.66646 17.6263 9.28243 17.8781L9.28241 17.8781L9.28225 17.8782L9.28152 17.8787L9.27841 17.8807L9.26579 17.889L9.21596 17.9216C9.17222 17.9501 9.108 17.9919 9.02657 18.0447C8.86369 18.1504 8.63212 18.3 8.35798 18.4753C7.80871 18.8266 7.09264 19.2784 6.41703 19.6863C6.22062 19.8049 6.10699 19.9701 6.10221 20.1441C6.09743 20.3181 6.20191 20.4859 6.39168 20.6089L9.38501 22.5497L6.40732 24.3971C6.21511 24.5164 6.10511 24.6808 6.10217 24.8533C6.09924 25.0258 6.20363 25.1917 6.39174 25.3137L19.4694 33.793C19.8555 34.0433 20.4816 34.0433 20.8678 33.793L33.7219 25.4586C34.0994 25.2139 34.1091 24.819 33.7437 24.5665L30.8862 22.5924L33.7218 20.7538C34.0921 20.5138 34.1095 20.1282 33.7616 19.8745L31.0578 17.9029ZM29.4871 23.4996L20.8677 29.0882C20.4816 29.3385 19.8555 29.3385 19.4693 29.0882L10.7838 23.4567L8.50499 24.8704L20.1686 32.4329L31.646 24.9911L29.4871 23.4996Z" fill="#3D3D3D"/>
<circle cx="0.757414" cy="0.757414" r="0.734945" transform="matrix(0.839065 -0.544032 0.839065 0.544032 6.61987 14.6318)" fill="#FF2E3D" stroke="#FF2E3D" stroke-width="0.044938"/>
<circle cx="0.757414" cy="0.757414" r="0.734945" transform="matrix(0.839065 -0.544032 0.839065 0.544032 18.5994 22.3992)" fill="#FF2E3D" stroke="#FF2E3D" stroke-width="0.044938"/>
<path d="M9.20945 12.7881C9.20945 12.7881 11.0048 13.2516 11.0048 14.5702C11.0048 15.8888 9.1459 16.4554 9.1459 16.4554" stroke="#FF2E3D" stroke-width="1.34814" stroke-linecap="round" stroke-linejoin="round"/>
<path d="M11.2589 11.933C11.2589 11.933 13.1099 12.7931 13.2449 14.4362C13.3799 16.0793 11.1159 17.3 11.1159 17.3" stroke="#FF2E3D" stroke-width="1.34814" stroke-linecap="round" stroke-linejoin="round"/>
<path d="M12.9751 10.9235C12.9751 10.9235 15.5171 12.3451 15.5966 14.4981C15.676 16.6511 12.848 18.2787 12.848 18.2787" stroke="#FF2E3D" stroke-width="1.34814" stroke-linecap="round" stroke-linejoin="round"/>
<path d="M14.6431 9.84177C14.6431 9.84177 17.6618 11.4282 17.916 14.3332C18.1702 17.2382 14.4524 19.3603 14.4524 19.3603" stroke="#FF2E3D" stroke-width="1.34814" stroke-linecap="round" stroke-linejoin="round"/>
<path d="M16.2955 8.74991C16.2955 8.74991 19.8157 10.7941 20.1245 14.323C20.4333 17.8519 16.1048 20.4111 16.1048 20.4111" stroke="#FF2E3D" stroke-width="1.34814" stroke-linecap="round" stroke-linejoin="round"/>
<path d="M17.9637 7.73003C17.9637 7.73003 22.3011 10.5217 22.4441 14.3023C22.5871 18.083 17.6142 21.4515 17.6142 21.4515" stroke="#FF2E3D" stroke-width="1.34814" stroke-linecap="round" stroke-linejoin="round"/>
<circle cx="0.757414" cy="0.757414" r="0.734945" transform="matrix(-0.839065 0.544032 -0.839065 -0.544032 33.5339 14.4875)" fill="#FF2E3D" stroke="#FF2E3D" stroke-width="0.044938"/>
<circle cx="0.757414" cy="0.757414" r="0.734945" transform="matrix(-0.839065 0.544032 -0.839065 -0.544032 21.5544 6.72021)" fill="#FF2E3D" stroke="#FF2E3D" stroke-width="0.044938"/>
<path d="M30.9444 16.3316C30.9444 16.3316 29.149 15.868 29.149 14.5494C29.149 13.2308 31.0079 12.6642 31.0079 12.6642" stroke="#FF2E3D" stroke-width="1.34814" stroke-linecap="round" stroke-linejoin="round"/>
<path d="M28.8947 17.1867C28.8947 17.1867 27.0436 16.3266 26.9087 14.6834C26.7737 13.0403 29.0377 11.8196 29.0377 11.8196" stroke="#FF2E3D" stroke-width="1.34814" stroke-linecap="round" stroke-linejoin="round"/>
<path d="M27.1787 18.1961C27.1787 18.1961 24.6367 16.7745 24.5572 14.6215C24.4778 12.4685 27.3058 10.8409 27.3058 10.8409" stroke="#FF2E3D" stroke-width="1.34814" stroke-linecap="round" stroke-linejoin="round"/>
<path d="M25.5107 19.2779C25.5107 19.2779 22.492 17.6914 22.2378 14.7864C21.9836 11.8814 25.7014 9.75933 25.7014 9.75933" stroke="#FF2E3D" stroke-width="1.34814" stroke-linecap="round" stroke-linejoin="round"/>
<path d="M23.8581 20.3697C23.8581 20.3697 20.3379 18.3255 20.0291 14.7966C19.7203 11.2677 24.0488 8.70849 24.0488 8.70849" stroke="#FF2E3D" stroke-width="1.34814" stroke-linecap="round" stroke-linejoin="round"/>
<path d="M22.1901 21.3896C22.1901 21.3896 17.8527 18.5979 17.7097 14.8173C17.5667 11.0367 22.5397 7.66809 22.5397 7.66809" stroke="#FF2E3D" stroke-width="1.34814" stroke-linecap="round" stroke-linejoin="round"/>
<path d="M52.428 27V14.616H54.894V27H52.428ZM48.396 16.524V14.346H58.926V16.524H48.396ZM62.5402 27.18C61.6282 27.18 60.8182 26.988 60.1102 26.604C59.4022 26.208 58.8382 25.668 58.4182 24.984C58.0102 24.3 57.8062 23.52 57.8062 22.644C57.8062 21.78 58.0042 21.012 58.4002 20.34C58.8082 19.656 59.3602 19.116 60.0562 18.72C60.7522 18.312 61.5262 18.108 62.3782 18.108C63.2182 18.108 63.9562 18.3 64.5922 18.684C65.2402 19.056 65.7442 19.572 66.1042 20.232C66.4762 20.88 66.6622 21.618 66.6622 22.446C66.6622 22.602 66.6502 22.764 66.6262 22.932C66.6142 23.088 66.5842 23.268 66.5362 23.472L59.2282 23.49V21.726L65.4382 21.708L64.4842 22.446C64.4602 21.93 64.3642 21.498 64.1962 21.15C64.0402 20.802 63.8062 20.538 63.4942 20.358C63.1942 20.166 62.8222 20.07 62.3782 20.07C61.9102 20.07 61.5022 20.178 61.1542 20.394C60.8062 20.598 60.5362 20.892 60.3442 21.276C60.1642 21.648 60.0742 22.092 60.0742 22.608C60.0742 23.136 60.1702 23.598 60.3622 23.994C60.5662 24.378 60.8542 24.678 61.2262 24.894C61.5982 25.098 62.0302 25.2 62.5222 25.2C62.9662 25.2 63.3682 25.128 63.7282 24.984C64.0882 24.828 64.4002 24.6 64.6642 24.3L66.0502 25.686C65.6302 26.178 65.1142 26.55 64.5022 26.802C63.9022 27.054 63.2482 27.18 62.5402 27.18ZM72.4045 27.18C71.5165 27.18 70.7185 26.982 70.0105 26.586C69.3025 26.19 68.7445 25.65 68.3365 24.966C67.9285 24.282 67.7245 23.514 67.7245 22.662C67.7245 21.798 67.9285 21.024 68.3365 20.34C68.7445 19.656 69.3025 19.116 70.0105 18.72C70.7305 18.312 71.5285 18.108 72.4045 18.108C73.0885 18.108 73.7185 18.234 74.2945 18.486C74.8705 18.738 75.3685 19.098 75.7885 19.566L74.2765 21.096C74.0485 20.844 73.7725 20.652 73.4485 20.52C73.1365 20.388 72.7885 20.322 72.4045 20.322C71.9725 20.322 71.5825 20.424 71.2345 20.628C70.8985 20.82 70.6285 21.09 70.4245 21.438C70.2325 21.774 70.1365 22.176 70.1365 22.644C70.1365 23.1 70.2325 23.508 70.4245 23.868C70.6285 24.216 70.8985 24.492 71.2345 24.696C71.5825 24.888 71.9725 24.984 72.4045 24.984C72.8005 24.984 73.1545 24.918 73.4665 24.786C73.7905 24.642 74.0665 24.438 74.2945 24.174L75.8245 25.704C75.3805 26.184 74.8705 26.55 74.2945 26.802C73.7185 27.054 73.0885 27.18 72.4045 27.18ZM83.1899 27V22.014C83.1899 21.498 83.0279 21.078 82.7039 20.754C82.3799 20.43 81.9599 20.268 81.4439 20.268C81.1079 20.268 80.8079 20.34 80.5439 20.484C80.2799 20.628 80.0699 20.832 79.9139 21.096C79.7699 21.36 79.6979 21.666 79.6979 22.014L78.7799 21.546C78.7799 20.862 78.9239 20.268 79.2119 19.764C79.4999 19.248 79.8959 18.846 80.3999 18.558C80.9159 18.27 81.5039 18.126 82.1639 18.126C82.8239 18.126 83.4059 18.27 83.9099 18.558C84.4259 18.846 84.8279 19.242 85.1159 19.746C85.4039 20.25 85.5479 20.832 85.5479 21.492V27H83.1899ZM77.3399 27V13.986H79.6979V27H77.3399ZM90.6153 27.198C90.1233 27.198 89.6373 27.132 89.1573 27C88.6893 26.868 88.2573 26.688 87.8613 26.46C87.4653 26.22 87.1233 25.932 86.8353 25.596L88.2393 24.174C88.5393 24.51 88.8873 24.762 89.2833 24.93C89.6793 25.098 90.1173 25.182 90.5973 25.182C90.9813 25.182 91.2693 25.128 91.4613 25.02C91.6653 24.912 91.7673 24.75 91.7673 24.534C91.7673 24.294 91.6593 24.108 91.4433 23.976C91.2393 23.844 90.9693 23.736 90.6333 23.652C90.2973 23.556 89.9433 23.454 89.5713 23.346C89.2113 23.226 88.8633 23.076 88.5273 22.896C88.1913 22.704 87.9153 22.446 87.6993 22.122C87.4953 21.786 87.3933 21.354 87.3933 20.826C87.3933 20.274 87.5253 19.794 87.7893 19.386C88.0653 18.978 88.4553 18.66 88.9593 18.432C89.4633 18.204 90.0573 18.09 90.7413 18.09C91.4613 18.09 92.1093 18.216 92.6853 18.468C93.2733 18.72 93.7593 19.098 94.1433 19.602L92.7213 21.024C92.4573 20.7 92.1573 20.466 91.8213 20.322C91.4973 20.178 91.1433 20.106 90.7593 20.106C90.4113 20.106 90.1413 20.16 89.9493 20.268C89.7693 20.376 89.6793 20.526 89.6793 20.718C89.6793 20.934 89.7813 21.102 89.9853 21.222C90.2013 21.342 90.4773 21.45 90.8133 21.546C91.1493 21.63 91.4973 21.732 91.8573 21.852C92.2293 21.96 92.5773 22.116 92.9013 22.32C93.2373 22.524 93.5073 22.794 93.7113 23.13C93.9273 23.466 94.0353 23.898 94.0353 24.426C94.0353 25.278 93.7293 25.956 93.1173 26.46C92.5053 26.952 91.6713 27.198 90.6153 27.198ZM97.0833 27V14.688H99.4413V27H97.0833ZM95.0493 20.376V18.306H101.475V20.376H95.0493ZM106.406 27.18C105.614 27.18 104.9 26.982 104.264 26.586C103.628 26.19 103.13 25.65 102.77 24.966C102.41 24.282 102.23 23.514 102.23 22.662C102.23 21.798 102.41 21.024 102.77 20.34C103.13 19.656 103.628 19.116 104.264 18.72C104.9 18.324 105.614 18.126 106.406 18.126C107.03 18.126 107.588 18.252 108.08 18.504C108.572 18.756 108.962 19.11 109.25 19.566C109.55 20.01 109.712 20.514 109.736 21.078V24.21C109.712 24.786 109.55 25.296 109.25 25.74C108.962 26.184 108.572 26.538 108.08 26.802C107.588 27.054 107.03 27.18 106.406 27.18ZM106.838 25.002C107.498 25.002 108.032 24.786 108.44 24.354C108.848 23.91 109.052 23.34 109.052 22.644C109.052 22.188 108.956 21.786 108.764 21.438C108.584 21.078 108.326 20.802 107.99 20.61C107.666 20.406 107.282 20.304 106.838 20.304C106.406 20.304 106.022 20.406 105.686 20.61C105.362 20.802 105.104 21.078 104.912 21.438C104.732 21.786 104.642 22.188 104.642 22.644C104.642 23.112 104.732 23.526 104.912 23.886C105.104 24.234 105.362 24.51 105.686 24.714C106.022 24.906 106.406 25.002 106.838 25.002ZM108.926 27V24.66L109.304 22.536L108.926 20.448V18.306H111.266V27H108.926ZM117.637 27.18C116.749 27.18 115.951 26.982 115.243 26.586C114.535 26.19 113.977 25.65 113.569 24.966C113.161 24.282 112.957 23.514 112.957 22.662C112.957 21.798 113.161 21.024 113.569 20.34C113.977 19.656 114.535 19.116 115.243 18.72C115.963 18.312 116.761 18.108 117.637 18.108C118.321 18.108 118.951 18.234 119.527 18.486C120.103 18.738 120.601 19.098 121.021 19.566L119.509 21.096C119.281 20.844 119.005 20.652 118.681 20.52C118.369 20.388 118.021 20.322 117.637 20.322C117.205 20.322 116.815 20.424 116.467 20.628C116.131 20.82 115.861 21.09 115.657 21.438C115.465 21.774 115.369 22.176 115.369 22.644C115.369 23.1 115.465 23.508 115.657 23.868C115.861 24.216 116.131 24.492 116.467 24.696C116.815 24.888 117.205 24.984 117.637 24.984C118.033 24.984 118.387 24.918 118.699 24.786C119.023 24.642 119.299 24.438 119.527 24.174L121.057 25.704C120.613 26.184 120.103 26.55 119.527 26.802C118.951 27.054 118.321 27.18 117.637 27.18ZM128.116 27L124.75 22.518L128.098 18.306H130.816L126.892 23.058L126.982 21.906L130.996 27H128.116ZM122.572 27V13.986H124.93V27H122.572Z" fill="#3D3D3D"/>
<path d="M138.009 22.302V20.304H140.943C141.327 20.304 141.675 20.226 141.987 20.07C142.299 19.914 142.545 19.692 142.725 19.404C142.905 19.104 142.995 18.744 142.995 18.324C142.995 17.916 142.905 17.562 142.725 17.262C142.545 16.962 142.299 16.734 141.987 16.578C141.675 16.422 141.327 16.344 140.943 16.344H138.009V14.346H141.195C141.999 14.346 142.719 14.508 143.355 14.832C144.003 15.156 144.513 15.618 144.885 16.218C145.257 16.806 145.443 17.508 145.443 18.324C145.443 19.14 145.257 19.848 144.885 20.448C144.513 21.036 144.003 21.492 143.355 21.816C142.719 22.14 141.999 22.302 141.195 22.302H138.009ZM136.209 27V14.346H138.657V27H136.209ZM150.937 27.18C150.169 27.18 149.485 27.018 148.885 26.694C148.297 26.37 147.835 25.92 147.499 25.344C147.163 24.768 146.995 24.102 146.995 23.346V18.306H149.371V23.292C149.371 23.652 149.431 23.964 149.551 24.228C149.671 24.48 149.851 24.672 150.091 24.804C150.331 24.936 150.613 25.002 150.937 25.002C151.429 25.002 151.813 24.852 152.089 24.552C152.365 24.252 152.503 23.832 152.503 23.292V18.306H154.861V23.346C154.861 24.114 154.693 24.786 154.357 25.362C154.033 25.938 153.571 26.388 152.971 26.712C152.383 27.024 151.705 27.18 150.937 27.18ZM156.919 27V13.986H159.277V27H156.919ZM164.534 27.198C164.042 27.198 163.556 27.132 163.076 27C162.608 26.868 162.176 26.688 161.78 26.46C161.384 26.22 161.042 25.932 160.754 25.596L162.158 24.174C162.458 24.51 162.806 24.762 163.202 24.93C163.598 25.098 164.036 25.182 164.516 25.182C164.9 25.182 165.188 25.128 165.38 25.02C165.584 24.912 165.686 24.75 165.686 24.534C165.686 24.294 165.578 24.108 165.362 23.976C165.158 23.844 164.888 23.736 164.552 23.652C164.216 23.556 163.862 23.454 163.49 23.346C163.13 23.226 162.782 23.076 162.446 22.896C162.11 22.704 161.834 22.446 161.618 22.122C161.414 21.786 161.312 21.354 161.312 20.826C161.312 20.274 161.444 19.794 161.708 19.386C161.984 18.978 162.374 18.66 162.878 18.432C163.382 18.204 163.976 18.09 164.66 18.09C165.38 18.09 166.028 18.216 166.604 18.468C167.192 18.72 167.678 19.098 168.062 19.602L166.64 21.024C166.376 20.7 166.076 20.466 165.74 20.322C165.416 20.178 165.062 20.106 164.678 20.106C164.33 20.106 164.06 20.16 163.868 20.268C163.688 20.376 163.598 20.526 163.598 20.718C163.598 20.934 163.7 21.102 163.904 21.222C164.12 21.342 164.396 21.45 164.732 21.546C165.068 21.63 165.416 21.732 165.776 21.852C166.148 21.96 166.496 22.116 166.82 22.32C167.156 22.524 167.426 22.794 167.63 23.13C167.846 23.466 167.954 23.898 167.954 24.426C167.954 25.278 167.648 25.956 167.036 26.46C166.424 26.952 165.59 27.198 164.534 27.198ZM173.882 27.18C172.97 27.18 172.16 26.988 171.452 26.604C170.744 26.208 170.18 25.668 169.76 24.984C169.352 24.3 169.148 23.52 169.148 22.644C169.148 21.78 169.346 21.012 169.742 20.34C170.15 19.656 170.702 19.116 171.398 18.72C172.094 18.312 172.868 18.108 173.72 18.108C174.56 18.108 175.298 18.3 175.934 18.684C176.582 19.056 177.086 19.572 177.446 20.232C177.818 20.88 178.004 21.618 178.004 22.446C178.004 22.602 177.992 22.764 177.968 22.932C177.956 23.088 177.926 23.268 177.878 23.472L170.57 23.49V21.726L176.78 21.708L175.826 22.446C175.802 21.93 175.706 21.498 175.538 21.15C175.382 20.802 175.148 20.538 174.836 20.358C174.536 20.166 174.164 20.07 173.72 20.07C173.252 20.07 172.844 20.178 172.496 20.394C172.148 20.598 171.878 20.892 171.686 21.276C171.506 21.648 171.416 22.092 171.416 22.608C171.416 23.136 171.512 23.598 171.704 23.994C171.908 24.378 172.196 24.678 172.568 24.894C172.94 25.098 173.372 25.2 173.864 25.2C174.308 25.2 174.71 25.128 175.07 24.984C175.43 24.828 175.742 24.6 176.006 24.3L177.392 25.686C176.972 26.178 176.456 26.55 175.844 26.802C175.244 27.054 174.59 27.18 173.882 27.18Z" fill="#FF2E3D"/>
</svg>
