<svg width="40" height="40" viewBox="0 0 40 40" fill="none" xmlns="http://www.w3.org/2000/svg">
<path fill-rule="evenodd" clip-rule="evenodd" d="M31.0583 17.9031C30.6954 17.6385 30.0704 17.6147 29.6623 17.85C29.2542 18.0853 29.2175 18.4905 29.5804 18.7552L31.6645 20.2749L20.169 27.7283L8.50988 20.1688C8.95766 19.8909 9.38905 19.6176 9.74723 19.3885C10.0254 19.2107 10.2604 19.0589 10.426 18.9514C10.5088 18.8977 10.5743 18.855 10.6193 18.8257L10.6708 18.792L10.6843 18.7832L10.6878 18.7809L10.6887 18.7803L10.6889 18.7801L10.689 18.7801L9.98599 18.3292L10.6891 18.7801C11.0731 18.5283 11.0696 18.1223 10.6813 17.8733C10.293 17.6243 9.66695 17.6266 9.28292 17.8784L9.2829 17.8784L9.28274 17.8785L9.28201 17.879L9.2789 17.881L9.26628 17.8892L9.21645 17.9218C9.1727 17.9503 9.10849 17.9922 9.02706 18.045C8.86418 18.1507 8.63261 18.3003 8.35847 18.4756C7.8092 18.8268 7.09313 19.2787 6.41751 19.6866C6.22111 19.8051 6.10748 19.9704 6.1027 20.1444C6.09792 20.3183 6.2024 20.4861 6.39217 20.6091L9.3855 22.55L6.40781 24.3973C6.21559 24.5166 6.1056 24.681 6.10266 24.8535C6.09973 25.026 6.20411 25.192 6.39223 25.3139L19.4699 33.7932C19.856 34.0436 20.4821 34.0436 20.8683 33.7932L33.7224 25.4589C34.0999 25.2141 34.1096 24.8192 33.7442 24.5668L30.8867 22.5926L33.7223 20.7541C34.0926 20.514 34.11 20.1284 33.7621 19.8747L31.0583 17.9031ZM29.4876 23.4998L20.8682 29.0884C20.4821 29.3388 19.856 29.3388 19.4698 29.0884L10.7843 23.4569L8.50548 24.8707L20.1691 32.4331L31.6465 24.9914L29.4876 23.4998Z" fill="#3D3D3D"/>
<circle cx="0.757414" cy="0.757414" r="0.734945" transform="matrix(0.839065 -0.544032 0.839065 0.544032 6.62012 14.6318)" fill="#FF2E3D" stroke="#FF2E3D" stroke-width="0.044938"/>
<circle cx="0.757414" cy="0.757414" r="0.734945" transform="matrix(0.839065 -0.544032 0.839065 0.544032 18.5996 22.3989)" fill="#FF2E3D" stroke="#FF2E3D" stroke-width="0.044938"/>
<path d="M9.20945 12.7878C9.20945 12.7878 11.0048 13.2514 11.0048 14.57C11.0048 15.8886 9.1459 16.4551 9.1459 16.4551" stroke="#FF2E3D" stroke-width="1.34814" stroke-linecap="round" stroke-linejoin="round"/>
<path d="M11.2591 11.9327C11.2591 11.9327 13.1102 12.7928 13.2451 14.436C13.3801 16.0791 11.1162 17.2998 11.1162 17.2998" stroke="#FF2E3D" stroke-width="1.34814" stroke-linecap="round" stroke-linejoin="round"/>
<path d="M12.9748 10.9233C12.9748 10.9233 15.5169 12.3449 15.5963 14.4979C15.6758 16.6509 12.8477 18.2785 12.8477 18.2785" stroke="#FF2E3D" stroke-width="1.34814" stroke-linecap="round" stroke-linejoin="round"/>
<path d="M14.6436 9.84152C14.6436 9.84152 17.6623 11.4279 17.9165 14.333C18.1707 17.238 14.4529 19.3601 14.4529 19.3601" stroke="#FF2E3D" stroke-width="1.34814" stroke-linecap="round" stroke-linejoin="round"/>
<path d="M16.2959 8.74967C16.2959 8.74967 19.8161 10.7938 20.1249 14.3227C20.4337 17.8516 16.1053 20.4109 16.1053 20.4109" stroke="#FF2E3D" stroke-width="1.34814" stroke-linecap="round" stroke-linejoin="round"/>
<path d="M17.9642 7.73003C17.9642 7.73003 22.3016 10.5217 22.4446 14.3023C22.5876 18.083 17.6146 21.4515 17.6146 21.4515" stroke="#FF2E3D" stroke-width="1.34814" stroke-linecap="round" stroke-linejoin="round"/>
<circle cx="0.757414" cy="0.757414" r="0.734945" transform="matrix(-0.839065 0.544032 -0.839065 -0.544032 33.5342 14.4873)" fill="#FF2E3D" stroke="#FF2E3D" stroke-width="0.044938"/>
<circle cx="0.757414" cy="0.757414" r="0.734945" transform="matrix(-0.839065 0.544032 -0.839065 -0.544032 21.5547 6.72021)" fill="#FF2E3D" stroke="#FF2E3D" stroke-width="0.044938"/>
<path d="M30.9448 16.3313C30.9448 16.3313 29.1495 15.8677 29.1495 14.5492C29.1495 13.2306 31.0084 12.664 31.0084 12.664" stroke="#FF2E3D" stroke-width="1.34814" stroke-linecap="round" stroke-linejoin="round"/>
<path d="M28.8952 17.1864C28.8952 17.1864 27.0441 16.3263 26.9092 14.6832C26.7742 13.04 29.0381 11.8194 29.0381 11.8194" stroke="#FF2E3D" stroke-width="1.34814" stroke-linecap="round" stroke-linejoin="round"/>
<path d="M27.1795 18.1959C27.1795 18.1959 24.6374 16.7743 24.558 14.6213C24.4785 12.4683 27.3066 10.8406 27.3066 10.8406" stroke="#FF2E3D" stroke-width="1.34814" stroke-linecap="round" stroke-linejoin="round"/>
<path d="M25.5107 19.2781C25.5107 19.2781 22.492 17.6917 22.2378 14.7867C21.9836 11.8817 25.7014 9.75958 25.7014 9.75958" stroke="#FF2E3D" stroke-width="1.34814" stroke-linecap="round" stroke-linejoin="round"/>
<path d="M23.8584 20.3695C23.8584 20.3695 20.3382 18.3253 20.0294 14.7964C19.7205 11.2675 24.049 8.70825 24.049 8.70825" stroke="#FF2E3D" stroke-width="1.34814" stroke-linecap="round" stroke-linejoin="round"/>
<path d="M22.1901 21.3896C22.1901 21.3896 17.8527 18.5979 17.7097 14.8173C17.5667 11.0367 22.5397 7.66809 22.5397 7.66809" stroke="#FF2E3D" stroke-width="1.34814" stroke-linecap="round" stroke-linejoin="round"/>
</svg>
